<svg xmlns="http://www.w3.org/2000/svg" width="35.94" height="36" viewBox="0 0 35.94 36">
  <defs>
    <style>
      .cls-1 {
        fill: #fff;
        fill-rule: evenodd;
      }
    </style>
  </defs>
  <path class="cls-1" d="M1394.51,3958.81h-10.03a3.167,3.167,0,0,0-3.16,3.16v10.06a3.167,3.167,0,0,0,3.16,3.16h10.03a3.169,3.169,0,0,0,3.17-3.16v-10.06A3.169,3.169,0,0,0,1394.51,3958.81Zm0.91,1.89,0.36-.01v2.78l-2.76.01-0.01-2.78h2.41Zm-8.26,4.62a2.884,2.884,0,0,1,2.34-1.2,2.9,2.9,0,0,1,2.88,2.88A2.88,2.88,0,1,1,1387.16,3965.32Zm8.92,6.71a1.573,1.573,0,0,1-1.57,1.57h-10.03a1.579,1.579,0,0,1-1.57-1.57v-6.71h2.45a4.3,4.3,0,0,0-.33,1.68,4.47,4.47,0,1,0,8.61-1.68h2.44v6.71ZM1389.5,3985a18.01,18.01,0,1,1,10.56-3.45A17.915,17.915,0,0,1,1389.5,3985Zm0-34.48a16.479,16.479,0,1,0,15.64,11.38A16.425,16.425,0,0,0,1389.5,3950.52Z" transform="translate(-1371.53 -3949)"/>
</svg>
