<svg xmlns="http://www.w3.org/2000/svg" width="35.94" height="36" viewBox="0 0 35.94 36">
  <defs>
    <style>
      .cls-1 {
        fill: #fff;
        fill-rule: evenodd;
      }
    </style>
  </defs>
  <path class="cls-1" d="M1451.2,3966.32c-0.48-.11-0.4-0.09.01-0.17,1.09-.23,1.79-0.57,1.86-1.1a4.651,4.651,0,0,1-2.23.1c-0.37-.07-0.27-0.03-0.35-0.39a4.642,4.642,0,0,0-4.48-3.8c2.31-.5,2.39-1.5.2-0.71,0.8-.5.89-0.96-0.27-0.41a4.978,4.978,0,0,0-.67.46c0.43-.83.06-0.59-0.66,0.16a11.208,11.208,0,0,0-2.48,4.52c-1.48-1.53-3.99-2.57-6.51-3.53-0.56-.22-0.71-0.41-0.57.34a3.294,3.294,0,0,0,1.7,2.11,4.939,4.939,0,0,0-.98.13c-0.29.07-.28,0.06-0.19,0.34a2.963,2.963,0,0,0,2.25,1.87,2.194,2.194,0,0,0-1.14.35c-0.28.2-.28,0.22-0.11,0.48a2.651,2.651,0,0,0,2.4,1.07c-1.26.64-.85,1.84,0.74,1.84a5.815,5.815,0,0,1-7.9.3c3.36,4.75,10.06,5.13,14.66,2.51a8.622,8.622,0,0,0,4.18-5.36,3.286,3.286,0,0,0,2.51-.97A7.823,7.823,0,0,1,1451.2,3966.32Zm-8.7,18.68a18.01,18.01,0,1,1,10.56-3.45A17.915,17.915,0,0,1,1442.5,3985Zm0-34.48a16.479,16.479,0,1,0,15.64,11.38A16.425,16.425,0,0,0,1442.5,3950.52Z" transform="translate(-1424.53 -3949)"/>
</svg>
